<?xml version="1.0" encoding="utf-8"?>
<!-- Generator: Adobe Illustrator 19.2.1, SVG Export Plug-In . SVG Version: 6.00 Build 0)  -->
<svg version="1.1" xmlns="http://www.w3.org/2000/svg" xmlns:xlink="http://www.w3.org/1999/xlink" x="0px" y="0px"
	 viewBox="0 0 32 32" enable-background="new 0 0 32 32" xml:space="preserve">
<g id="Layer_6" display="none">
	<rect x="-18.198" y="-1.333" display="inline" fill="#E2E2E2" width="415.531" height="194.734"/>
</g>
<g id="Style_1" display="none">
	<g display="inline">
		<path fill="#E02F2F" d="M16,0C7.163,0,0,7.163,0,16c0,8.836,7.163,16,16,16s16-7.164,16-16C32,7.163,24.837,0,16,0z"/>
		<path fill="none" stroke="#FF6666" stroke-width="0.5" stroke-miterlimit="10" d="M16,1.359C7.914,1.359,1.359,7.914,1.359,16
			c0,8.086,6.555,14.641,14.641,14.641S30.641,24.086,30.641,16C30.641,7.914,24.086,1.359,16,1.359z"/>
	</g>
	<path display="inline" fill="#FFFFFF" d="M13.69,24.903h3.679v-8.904h2.454l0.325-3.068h-2.779l0.004-1.536
		c0-0.8,0.076-1.229,1.224-1.229h1.534V7.097h-2.455c-2.949,0-3.986,1.489-3.986,3.992v1.842h-1.838v3.069h1.838V24.903z"/>
</g>
<g id="Style_1_copy" display="none">
	<polygon display="inline" fill="#CC0000" points="28.875,6.879 16,0 3.125,6.879 3.125,25.121 16,32 28.875,25.121 	"/>
	<polygon display="inline" fill="#FF0000" points="28.875,6.845 16,0 6.441,5.083 6.441,22.739 17.658,28.732 28.875,22.739 	"/>
	<polygon display="inline" fill="#FF0000" points="13.25,30.65 0.375,37.403 -12.5,30.65 -12.5,33.48 0.375,40.359 13.25,33.48 	"/>
	<path display="inline" fill="#FFFFFF" d="M13.69,24.903h3.679v-8.904h2.454l0.325-3.068h-2.779l0.004-1.536
		c0-0.8,0.076-1.229,1.224-1.229h1.534V7.097h-2.455c-2.949,0-3.986,1.489-3.986,3.992v1.842h-1.838v3.069h1.838V24.903z"/>
</g>
<g id="Style_2" display="none">
	<g display="inline">
		<g>
			<path fill="#FFFFFF" d="M16,31.625c-8.616,0-15.625-7.01-15.625-15.625C0.375,7.384,7.384,0.375,16,0.375
				c8.615,0,15.625,7.009,15.625,15.625C31.625,24.615,24.615,31.625,16,31.625z"/>
			<path fill="#E5E5E5" d="M16,0.75c8.409,0,15.25,6.841,15.25,15.25S24.409,31.25,16,31.25S0.75,24.409,0.75,16S7.591,0.75,16,0.75
				 M16,0C7.163,0,0,7.163,0,16c0,8.836,7.163,16,16,16s16-7.164,16-16C32,7.163,24.837,0,16,0L16,0z"/>
		</g>
	</g>
	<g display="inline">
		<polygon fill="#333333" points="6.518,21.815 11.707,15.291 6.518,12.119 		"/>
		<polygon fill="#333333" points="19.5,15.746 15.989,17.908 12.472,15.758 7.11,22.5 24.867,22.5 		"/>
		<polygon fill="#333333" points="15.988,16.864 25.482,11.017 25.482,9.5 6.518,9.5 6.518,11.076 		"/>
		<polygon fill="#333333" points="20.263,15.276 25.482,21.843 25.482,12.062 		"/>
	</g>
</g>
<g id="Style_2_copy_3">
	<g>
		<g>
			<g>
				<path fill="#FFFFFF" d="M16,31.625c-8.616,0-15.625-7.01-15.625-15.625C0.375,7.384,7.384,0.375,16,0.375
					c8.615,0,15.625,7.009,15.625,15.625C31.625,24.615,24.615,31.625,16,31.625z"/>
				<path fill="#E5E5E5" d="M16,0.75c8.409,0,15.25,6.841,15.25,15.25S24.409,31.25,16,31.25S0.75,24.409,0.75,16
					S7.591,0.75,16,0.75 M16,0C7.163,0,0,7.163,0,16c0,8.836,7.163,16,16,16s16-7.164,16-16C32,7.163,24.837,0,16,0L16,0z"/>
			</g>
		</g>
		<path fill="#333333" d="M16,5.534c-3.73,0-6.754,3.024-6.754,6.754c0,0.625,0.085,1.231,0.244,1.806
			c0.064,0.23,0.139,0.456,0.226,0.675l0.205,0.465L16,26.466l6.087-11.249l0.185-0.419c0.092-0.229,0.171-0.464,0.238-0.705
			c0.159-0.575,0.244-1.18,0.244-1.806C22.754,8.558,19.73,5.534,16,5.534z M16,15.214c-1.65,0-2.988-1.338-2.988-2.988
			c0-1.65,1.338-2.988,2.988-2.988c1.65,0,2.988,1.338,2.988,2.988C18.988,13.877,17.65,15.214,16,15.214z"/>
	</g>
</g>
<g id="Style_2_copy" display="none">
	<g display="inline">
		<g>
			<path fill="#FFFFFF" d="M16,31.25C7.591,31.25,0.75,24.409,0.75,16C0.75,7.591,7.591,0.75,16,0.75
				c8.409,0,15.25,6.841,15.25,15.25C31.25,24.409,24.409,31.25,16,31.25z"/>
			<path fill="#FF0000" d="M16,1.5c7.995,0,14.5,6.505,14.5,14.5S23.995,30.5,16,30.5S1.5,23.995,1.5,16S8.005,1.5,16,1.5 M16,0
				C7.163,0,0,7.163,0,16c0,8.836,7.163,16,16,16s16-7.164,16-16C32,7.163,24.837,0,16,0L16,0z"/>
		</g>
	</g>
	<path display="inline" d="M13.69,24.903h3.679v-8.904h2.454l0.325-3.068h-2.779l0.004-1.536c0-0.8,0.076-1.229,1.224-1.229h1.534
		V7.097h-2.455c-2.949,0-3.986,1.489-3.986,3.992v1.842h-1.838v3.069h1.838V24.903z"/>
</g>
<g id="Style_2_copy_2" display="none">
	<path display="inline" fill="#FFFFFF" d="M16,31.25C7.591,31.25,0.75,24.409,0.75,16C0.75,7.591,7.591,0.75,16,0.75
		c8.409,0,15.25,6.841,15.25,15.25C31.25,24.409,24.409,31.25,16,31.25z"/>
	<path display="inline" fill="#8AD5DD" d="M16,1.5c7.995,0,14.5,6.505,14.5,14.5S23.995,30.5,16,30.5S1.5,23.995,1.5,16
		S8.005,1.5,16,1.5 M16,0C7.163,0,0,7.163,0,16c0,8.836,7.163,16,16,16s16-7.164,16-16C32,7.163,24.837,0,16,0L16,0z"/>
	<path display="inline" fill="#333333" d="M13.69,24.903h3.679v-8.904h2.454l0.325-3.068h-2.779l0.004-1.536
		c0-0.8,0.076-1.229,1.224-1.229h1.534V7.097h-2.455c-2.949,0-3.986,1.489-3.986,3.992v1.842h-1.838v3.069h1.838V24.903z"/>
</g>
<g id="Style_3" display="none">
	<g display="inline">
		<g>
			<path fill="#FFFFFF" d="M16,31.625c-8.616,0-15.625-7.01-15.625-15.625C0.375,7.384,7.384,0.375,16,0.375
				c8.615,0,15.625,7.009,15.625,15.625C31.625,24.615,24.615,31.625,16,31.625z"/>
			<path fill="#E5E5E5" d="M16,0.75c8.409,0,15.25,6.841,15.25,15.25S24.409,31.25,16,31.25S0.75,24.409,0.75,16S7.591,0.75,16,0.75
				 M16,0C7.163,0,0,7.163,0,16c0,8.836,7.163,16,16,16s16-7.164,16-16C32,7.163,24.837,0,16,0L16,0z"/>
		</g>
	</g>
	<path display="inline" fill="#FF3878" d="M13.69,24.903h3.679v-8.904h2.454l0.325-3.068h-2.779l0.004-1.536
		c0-0.8,0.076-1.229,1.224-1.229h1.534V7.097h-2.455c-2.949,0-3.986,1.489-3.986,3.992v1.842h-1.838v3.069h1.838V24.903z"/>
</g>
<g id="Style_3_copy_2" display="none">
	<path display="inline" fill="#25B6D2" d="M11.848,32h6.612V15.998h4.411l0.584-5.514H18.46l0.007-2.761
		c0-1.437,0.137-2.209,2.2-2.209h2.757V0h-4.412c-5.299,0-7.164,2.675-7.164,7.174v3.311H8.545v5.515h3.303V32z"/>
</g>
<g id="Style_3_copy" display="none">
	<g display="inline">
		<g>
			<path fill="#FFFFFF" d="M16,31.625c-8.616,0-15.625-7.01-15.625-15.625C0.375,7.384,7.384,0.375,16,0.375
				c8.615,0,15.625,7.009,15.625,15.625C31.625,24.615,24.615,31.625,16,31.625z"/>
			<path fill="#E5E5E5" d="M16,0.75c8.409,0,15.25,6.841,15.25,15.25S24.409,31.25,16,31.25S0.75,24.409,0.75,16S7.591,0.75,16,0.75
				 M16,0C7.163,0,0,7.163,0,16c0,8.836,7.163,16,16,16s16-7.164,16-16C32,7.163,24.837,0,16,0L16,0z"/>
		</g>
	</g>
	<path display="inline" fill="#0BA4E0" d="M13.69,24.903h3.679v-8.904h2.454l0.325-3.068h-2.779l0.004-1.536
		c0-0.8,0.076-1.229,1.224-1.229h1.534V7.097h-2.455c-2.949,0-3.986,1.489-3.986,3.992v1.842h-1.838v3.069h1.838V24.903z"/>
</g>
<g id="Style_3_copy_3" display="none">
</g>
<g id="Style_3_copy_4" display="none">
</g>
</svg>
